<svg xmlns="http://www.w3.org/2000/svg" version="1.1" viewBox="171.95 142.01 161.1 232.62">
<path d="M 222.93 145.87 C 225.09 143.18 228.62 141.96 232.01 142.15 C 248.33 142.25 264.66 142.11 280.98 142.21 C 285.48 142.30 288.87 145.92 290.32 149.93 C 290.11 154.13 291.48 158.97 288.64 162.57 C 286.84 165.39 283.65 166.73 280.49 167.39 C 280.68 178.93 280.43 190.48 280.57 202.02 C 280.55 203.85 282.06 205.17 282.86 206.69 C 286.04 205.03 289.24 202.69 293.01 202.91 C 295.70 203.26 298.75 204.09 300.21 206.61 C 307.29 217.90 314.38 229.18 321.48 240.45 C 323.40 243.77 326.69 246.92 325.76 251.13 C 325.62 255.17 321.33 256.67 318.55 258.69 C 313.16 262.51 307.27 265.63 302.13 269.78 C 310.56 284.02 319.08 298.22 327.43 312.51 C 332.98 321.50 334.50 332.91 331.18 342.99 C 327.94 352.36 320.98 360.50 312.03 364.82 C 312.48 364.14 313.03 363.57 313.70 363.09 C 325.55 352.04 330.54 333.55 323.47 318.56 C 315.02 303.19 305.56 288.40 297.01 273.09 C 294.47 274.43 291.94 276.34 288.87 275.83 C 284.66 275.53 282.90 271.10 280.91 268.04 C 273.53 256.32 266.21 244.55 258.93 232.77 C 256.14 228.55 256.42 221.84 260.81 218.80 C 265.04 215.85 269.61 213.38 273.75 210.29 C 272.38 207.56 270.31 205.05 269.77 202.00 C 270.45 199.99 272.24 198.60 274.30 198.26 C 274.38 188.00 274.25 177.75 274.36 167.49 C 261.99 167.31 249.61 167.48 237.23 167.42 C 236.95 183.95 237.19 200.49 237.11 217.03 C 237.00 220.56 237.61 224.44 235.65 227.60 C 221.25 251.54 207.11 275.63 192.67 299.54 C 187.30 310.05 178.40 319.59 178.32 332.03 C 177.55 341.76 181.39 351.25 187.16 358.92 C 189.07 361.22 191.41 363.14 193.23 365.53 C 185.63 361.14 178.70 354.97 175.22 346.74 C 170.39 336.39 171.26 323.81 176.89 313.95 C 194.32 284.44 212.07 255.11 229.51 225.60 C 230.21 224.53 230.78 223.36 230.62 222.04 C 230.60 203.80 230.63 185.56 230.65 167.32 C 225.94 166.99 221.70 163.60 220.59 159.01 C 220.56 154.61 219.61 149.38 222.93 145.87 Z" fill="#193654" opacity="1.00" stroke="#193654" stroke-width="0.25"/>
<path d="M 229.51 148.48 C 246.01 148.42 262.52 148.51 279.02 148.43 C 280.69 148.20 282.11 149.08 283.44 149.96 C 284.55 153.00 284.42 156.28 283.34 159.32 C 281.74 160.34 279.96 161.06 278.03 160.87 C 262.66 160.84 247.29 160.91 231.92 160.85 C 230.32 161.00 229.00 160.07 227.68 159.36 C 226.21 155.78 225.99 150.95 229.51 148.48 Z" fill="#ffffff" opacity="1.00" stroke="#ffffff" stroke-width="0.25"/>
<path d="M 272.48 200.75 C 273.36 200.63 274.25 200.51 275.14 200.40 C 277.23 204.71 279.71 208.81 281.83 213.10 C 282.96 214.70 283.54 216.59 283.76 218.53 C 282.69 218.65 281.62 218.77 280.56 218.89 C 279.24 212.95 275.40 208.13 272.62 202.87 C 272.58 202.34 272.51 201.28 272.48 200.75 Z" fill="#ffffff" opacity="1.00" stroke="#ffffff" stroke-width="0.25"/>
<path d="M 284.93 211.94 C 287.73 209.32 292.87 206.35 296.07 209.91 C 303.94 222.11 311.39 234.59 319.36 246.74 C 320.16 248.13 321.80 250.58 319.71 251.68 C 310.90 257.57 301.88 263.17 293.13 269.17 C 291.87 270.17 290.36 270.64 288.76 270.58 C 280.14 256.74 271.33 243.01 262.81 229.12 C 261.98 227.68 262.41 225.97 262.44 224.41 C 266.51 221.08 271.14 218.54 275.37 215.42 C 275.15 218.40 275.25 222.12 278.16 223.84 C 281.65 226.20 287.03 224.31 287.94 220.11 C 289.25 216.96 287.01 214.06 284.93 211.94 Z" fill="#ffffff" opacity="1.00" stroke="#ffffff" stroke-width="0.25"/>
<path d="M 187.67 321.49 C 192.96 311.79 198.59 302.27 203.90 292.58 C 219.81 294.97 235.93 295.72 252.00 295.64 C 268.40 295.73 284.83 295.02 301.08 292.73 C 306.03 301.98 311.51 310.94 316.58 320.12 C 319.76 325.88 321.27 332.50 321.07 339.06 C 320.44 352.17 311.70 364.38 299.56 369.31 C 285.52 375.40 269.91 374.45 254.96 374.45 C 240.35 374.19 225.37 375.65 211.16 371.38 C 202.63 368.91 194.28 364.18 189.60 356.38 C 182.43 346.27 181.98 332.38 187.67 321.49 Z" fill="#193654" opacity="1.00" stroke="#193654" stroke-width="0.25"/>
</svg>